<?xml version="1.0" standalone="no"?>
<!DOCTYPE svg PUBLIC "-//W3C//DTD SVG 20010904//EN"
 "http://www.w3.org/TR/2001/REC-SVG-20010904/DTD/svg10.dtd">
<svg version="1.0" xmlns="http://www.w3.org/2000/svg"
 width="1342.000000pt" height="463.000000pt" viewBox="0 0 1342.000000 463.000000"
 preserveAspectRatio="xMidYMid meet">
<metadata>
Created by potrace 1.16, written by Peter Selinger 2001-2019
</metadata>
<g transform="translate(0.000000,463.000000) scale(0.100000,-0.100000)"
fill="#000000" stroke="none">
<path d="M2928 4213 c-7 -16 -13 -81 -14 -147 l-1 -120 -58 -13 c-98 -22 -187
-76 -261 -160 -37 -40 -64 -76 -62 -79 3 -2 43 6 89 20 61 17 88 21 97 13 10
-8 1 -22 -46 -63 -70 -62 -127 -143 -142 -201 -11 -42 -31 -225 -25 -231 2 -2
27 10 57 27 62 35 83 38 97 14 6 -13 1 -38 -19 -88 l-28 -70 -81 -7 c-183 -15
-347 -71 -498 -170 -248 -162 -495 -512 -578 -820 -54 -200 -58 -431 -12 -608
70 -269 222 -538 402 -715 257 -251 543 -358 955 -357 211 1 350 28 528 104
161 68 226 112 362 248 296 294 450 644 450 1019 0 228 -96 515 -237 713 -51
71 -61 80 -142 119 -209 104 -325 174 -393 239 -47 45 -70 75 -74 98 -4 17
-11 32 -16 32 -16 0 1 -52 31 -95 42 -60 180 -159 361 -259 l161 -90 84 -170
c76 -156 118 -268 144 -384 5 -24 6 -42 3 -40 -4 2 -55 29 -113 61 -393 213
-851 320 -1184 277 -38 -5 -70 -8 -71 -7 -2 2 103 147 116 161 6 6 18 -1 30
-17 12 -15 25 -27 29 -27 4 0 5 27 3 60 -6 77 11 100 73 100 48 0 64 13 71 62
7 41 -13 92 -54 139 -114 130 -170 326 -159 558 8 180 43 267 150 378 l60 62
28 -39 c16 -22 42 -46 59 -55 16 -8 30 -20 30 -25 0 -16 73 -23 119 -11 24 6
56 21 72 32 20 14 41 19 71 17 40 -3 43 -1 46 25 2 19 -1 27 -12 27 -9 0 -16
-7 -16 -15 0 -9 -6 -12 -15 -9 -14 6 -14 8 -1 18 14 10 13 15 -6 45 -15 24
-44 44 -103 72 -45 22 -90 48 -99 58 -16 17 -15 18 9 14 22 -5 25 -2 25 21 0
15 -5 36 -10 46 -10 18 -8 18 37 3 37 -13 67 -36 131 -104 65 -67 97 -93 145
-114 120 -54 247 -149 247 -186 0 -11 -4 -19 -10 -19 -5 0 -10 -8 -10 -18 0
-23 91 -92 181 -138 59 -29 69 -31 85 -19 31 24 53 17 82 -26 15 -22 41 -59
58 -83 23 -32 33 -58 38 -106 4 -35 11 -72 16 -81 8 -15 -2 -17 -103 -23 -62
-4 -119 -4 -128 -1 -9 3 -37 35 -64 71 l-47 65 -92 -2 -92 -2 -64 65 c-145
144 -196 169 -266 130 -41 -23 -114 -76 -114 -83 0 -3 31 -11 69 -18 l69 -12
11 -59 c21 -106 89 -158 221 -167 89 -7 109 -19 115 -75 2 -18 10 -55 19 -83
l15 -50 -25 29 c-28 32 -27 33 -40 -13 -11 -41 -34 -55 -27 -16 5 24 3 25 -42
25 l-48 0 27 21 c37 29 32 37 -22 31 l-48 -4 4 35 c4 32 0 38 -34 60 -22 14
-79 40 -127 58 -72 27 -91 39 -108 66 -12 18 -18 40 -15 48 3 8 1 15 -4 15
-19 0 -20 -41 -2 -82 18 -41 24 -45 130 -91 124 -54 149 -73 84 -64 l-42 5 21
-29 c11 -16 34 -36 50 -45 25 -13 28 -18 18 -30 -16 -19 -12 -22 49 -36 47
-11 52 -15 52 -40 0 -15 4 -30 10 -33 10 -6 65 19 93 43 16 14 17 11 17 -56 0
-40 4 -72 10 -72 12 0 50 123 50 165 0 18 -9 54 -20 80 -26 61 -25 73 4 46 15
-14 27 -40 31 -65 9 -53 30 -92 59 -111 29 -19 52 -11 60 21 10 39 32 28 71
-35 43 -72 88 -102 153 -104 l47 -2 -3 46 c-3 35 0 48 13 52 8 4 61 -8 116
-25 113 -36 129 -32 104 30 -37 86 -116 146 -212 158 -29 3 -53 8 -53 10 0 23
36 84 49 84 45 0 78 54 47 79 -7 6 -16 39 -18 74 -5 57 -11 72 -69 158 -72
106 -103 128 -145 106 -25 -13 -32 -12 -73 6 -25 11 -72 38 -103 60 -49 33
-56 42 -47 58 26 49 -47 134 -170 198 -90 47 -121 84 -167 201 -32 82 -73 136
-97 127 -9 -3 -21 -24 -28 -46 -7 -23 -13 -41 -14 -41 -1 0 -20 9 -43 20 -60
29 -138 43 -198 36 l-53 -6 -24 52 c-13 29 -30 68 -37 86 -15 39 -27 41 -42 5z
m159 -259 c90 -93 104 -103 173 -129 41 -15 83 -35 93 -45 18 -17 17 -17 -13
-24 -17 -3 -46 -16 -63 -28 -42 -30 -114 -31 -154 -2 -31 23 -96 117 -139 201
-23 45 -28 71 -31 142 l-3 86 20 -50 c14 -35 49 -80 117 -151z m-120 -93 l41
-69 -44 -32 c-83 -59 -149 -162 -181 -283 -12 -44 -17 -104 -17 -212 0 -127 3
-163 23 -235 29 -104 64 -174 130 -264 38 -51 51 -78 51 -102 0 -30 -3 -34
-25 -34 -47 0 -95 -27 -109 -62 l-14 -33 -8 40 c-5 27 -2 61 10 105 23 92 21
132 -9 168 -50 60 -110 50 -148 -24 -27 -52 -33 -49 -47 25 -13 70 8 182 54
294 50 121 47 164 -14 185 -23 8 -40 8 -70 -3 l-39 -14 5 47 c16 130 41 177
139 270 70 67 76 75 68 99 -14 40 -34 49 -91 37 l-50 -10 15 22 c30 47 123
103 223 135 30 10 58 18 61 18 4 1 24 -30 46 -68z m643 -669 l44 -44 87 7 86
6 49 -60 c57 -70 100 -91 184 -91 l59 0 -6 -35 c-7 -46 7 -61 68 -74 46 -10
153 -63 164 -82 3 -4 -13 -2 -36 6 -23 8 -56 15 -74 15 -41 0 -92 -40 -97 -76
l-3 -25 -40 26 c-22 15 -52 45 -66 68 -14 23 -42 51 -63 62 l-37 20 -24 -27
c-26 -30 -45 -21 -45 22 0 29 -33 88 -54 96 -8 3 -18 18 -21 34 -13 60 -98
108 -170 97 -20 -3 -48 4 -84 22 l-55 26 -12 64 c-8 48 -18 70 -37 87 -17 14
-22 24 -14 27 11 4 79 -55 197 -171z m-1016 -124 c-30 -94 -32 -211 -5 -289
20 -60 76 -175 88 -182 5 -3 7 27 5 66 -6 111 41 202 84 166 31 -25 33 -53 10
-141 l-21 -86 -75 -65 c-41 -35 -91 -81 -110 -103 -82 -91 -205 -286 -254
-401 l-23 -56 -12 34 c-98 273 -206 636 -236 790 l-13 68 47 30 c107 69 422
189 499 190 20 1 22 -2 16 -21z m-615 -432 c6 -99 18 -225 27 -280 17 -109 81
-359 113 -442 55 -143 145 -310 213 -397 17 -21 28 -40 25 -43 -6 -6 -209 29
-322 56 -44 10 -129 31 -190 45 -60 14 -170 44 -244 67 l-134 42 6 146 c6 169
31 277 98 439 45 110 142 272 217 361 48 58 174 191 178 187 1 -1 7 -83 13
-181z m820 -139 c7 -7 -22 -44 -94 -119 -58 -59 -105 -111 -105 -116 0 -4 4
-13 9 -21 8 -12 20 -12 88 0 48 9 143 14 248 13 181 0 283 -15 480 -70 93 -26
378 -134 371 -141 -2 -2 -65 12 -139 31 -75 19 -232 51 -348 72 -205 36 -212
37 -226 19 -11 -17 -10 -23 16 -49 138 -146 277 -430 350 -718 22 -87 51 -270
50 -314 -1 -27 -2 -26 -14 11 -7 22 -32 99 -54 170 -22 72 -65 199 -95 284
-31 85 -56 156 -56 158 0 1 -10 3 -23 3 -21 0 -29 -13 -62 -102 -100 -263
-334 -552 -625 -772 l-105 -79 116 124 c168 181 369 418 369 436 -1 31 -16 33
-116 18 -245 -37 -554 -1 -829 95 -118 42 -237 91 -232 97 3 2 80 -14 173 -36
197 -47 485 -97 508 -88 26 10 19 33 -26 84 -182 210 -322 562 -373 943 -21
152 -18 151 29 -10 44 -150 127 -393 167 -492 18 -44 29 -58 45 -58 17 0 27
16 54 88 59 158 212 396 371 575 l42 49 13 -37 c7 -21 17 -42 23 -48z m576
-423 c162 -29 503 -113 620 -152 l80 -28 -1 -129 c-1 -195 -36 -336 -127 -526
-74 -154 -180 -299 -311 -429 l-66 -64 0 124 c0 140 -20 333 -50 479 -48 236
-166 520 -285 686 -52 72 -53 74 -27 69 15 -2 90 -16 167 -30z m-1459 -673
c152 -58 283 -93 460 -122 105 -17 158 -20 284 -16 85 2 164 8 174 12 19 8 19
7 3 -15 -84 -120 -571 -631 -615 -644 -63 -20 -342 200 -466 368 -125 169
-223 386 -270 598 -6 25 -1 23 148 -53 85 -44 212 -101 282 -128z m1393 49
c88 -247 184 -586 197 -696 l6 -51 -58 -36 c-60 -36 -190 -92 -279 -120 -184
-59 -459 -69 -685 -26 -84 16 -200 51 -200 60 0 5 4 9 8 9 15 0 211 128 311
203 121 91 312 275 404 390 83 104 182 266 217 354 13 34 25 61 26 60 1 -1 25
-67 53 -147z"/>
<path d="M3473 3615 c-87 -44 -97 -74 -12 -35 24 11 62 19 84 19 l40 0 -36
-19 c-65 -34 -56 -64 31 -106 32 -16 38 -16 79 -1 25 9 49 13 54 10 9 -6 -88
-73 -106 -73 -5 0 -36 16 -69 35 -33 20 -63 33 -66 30 -3 -3 -3 -6 -1 -8 2 -2
27 -22 55 -45 69 -56 95 -56 167 6 31 26 56 50 56 54 2 16 -119 129 -153 143
-48 20 -64 19 -123 -10z"/>
<path d="M6705 2572 c-39 -20 -104 -61 -145 -91 -368 -266 -702 -667 -752
-902 -10 -50 -9 -60 10 -100 25 -52 84 -91 137 -91 71 0 174 76 412 305 98 95
121 127 89 127 -8 0 -98 -62 -200 -139 -218 -164 -244 -180 -291 -188 -34 -5
-35 -4 -35 24 0 189 478 688 890 928 30 18 -58 -83 -190 -219 -156 -159 -323
-303 -462 -396 -54 -36 -98 -68 -98 -72 0 -15 58 -8 102 11 190 83 676 499
749 643 35 70 18 125 -54 172 -54 34 -78 33 -162 -12z"/>
<path d="M8920 2604 c-14 -2 -65 -9 -115 -15 -249 -31 -588 -174 -721 -305
-61 -59 -104 -140 -104 -196 0 -51 51 -107 128 -141 32 -15 133 -45 225 -67
178 -42 237 -66 262 -104 14 -21 14 -28 2 -58 -37 -88 -249 -200 -437 -229
-86 -13 -105 -3 -62 33 27 22 109 59 227 100 46 16 53 41 12 46 -64 8 -286
-83 -325 -133 -42 -53 -23 -109 51 -147 125 -65 413 16 568 159 31 29 64 68
73 87 22 46 21 124 -2 159 -41 62 -156 121 -287 147 -100 20 -251 69 -279 91
-43 34 -35 64 33 131 98 94 377 220 582 262 168 34 343 43 402 20 59 -22 -39
-111 -223 -204 -44 -22 -80 -44 -80 -49 0 -36 133 -10 251 49 138 70 194 139
175 216 -12 45 -83 112 -138 129 -52 15 -176 26 -218 19z"/>
<path d="M5751 2540 c-46 -25 -65 -30 -125 -30 -160 0 -526 -55 -666 -100
-172 -56 -343 -164 -370 -236 -37 -98 20 -180 143 -206 43 -9 60 -9 68 -1 9 9
3 17 -23 33 -125 73 29 227 320 319 147 46 372 91 459 91 8 0 -18 -25 -58 -56
-108 -83 -190 -155 -322 -284 l-119 -115 -116 -5 -117 -5 32 -32 c31 -32 55
-39 121 -33 12 1 22 -1 22 -4 0 -3 -16 -28 -36 -55 -45 -63 -74 -146 -74 -211
0 -91 58 -167 164 -216 52 -24 67 -26 140 -22 149 9 296 79 537 259 100 75
119 93 109 105 -7 7 -17 14 -22 14 -6 0 -72 -34 -148 -75 -254 -139 -413 -193
-536 -183 -73 6 -94 26 -94 92 0 64 26 120 89 200 86 107 93 111 211 129 58 9
156 19 218 23 l113 7 -32 -47 c-18 -25 -30 -48 -26 -52 7 -8 102 35 178 82 63
38 71 57 42 93 -18 22 -19 22 -113 7 -98 -16 -380 -39 -387 -33 -10 10 227
214 367 317 159 117 140 110 311 110 l152 0 -24 -29 c-110 -134 -119 -146
-103 -149 8 -2 50 18 92 45 181 116 242 159 242 169 0 7 -8 22 -19 35 -18 22
-24 23 -202 26 -100 1 -185 7 -188 11 -12 17 -47 30 -101 36 -49 6 -61 3 -109
-24z"/>
<path d="M7008 2350 c-60 -69 -142 -206 -134 -226 7 -18 17 -13 163 83 99 65
137 106 123 133 -12 22 -71 60 -93 60 -8 0 -35 -22 -59 -50z"/>
<path d="M7410 2356 c0 -32 -11 -49 -89 -134 -162 -177 -164 -178 -259 -190
-51 -6 -96 -7 -115 -1 -38 11 -40 9 -27 -25 14 -39 50 -51 114 -39 l54 9 -64
-69 c-145 -156 -274 -353 -274 -417 0 -43 44 -90 85 -90 27 0 37 7 58 39 32
48 121 128 211 189 38 26 71 53 74 60 10 32 -68 -2 -223 -98 l-40 -25 50 64
c79 101 216 251 292 317 l69 62 107 13 c117 14 141 22 117 40 -9 6 -45 8 -92
5 l-77 -5 42 37 c23 21 58 51 77 66 111 90 84 185 -62 221 -27 7 -28 5 -28
-29z"/>
<path d="M10085 2123 c-134 -18 -320 -129 -466 -280 -153 -157 -219 -306 -174
-393 17 -33 61 -70 83 -70 8 0 67 51 131 113 65 61 156 140 204 175 48 34 87
61 87 60 0 -2 -7 -25 -15 -52 -21 -68 -19 -139 5 -185 20 -41 63 -81 86 -81 9
0 9 -8 -4 -32 -21 -43 -21 -143 1 -184 21 -42 73 -84 101 -84 34 0 37 9 14 41
-29 39 -19 99 32 197 124 239 420 516 685 644 47 22 88 39 90 36 11 -11 -21
-85 -67 -154 -61 -91 -231 -264 -313 -318 -104 -70 -183 -79 -200 -25 -8 25
-38 21 -43 -5 -6 -28 18 -66 52 -83 43 -22 140 -19 211 8 135 51 354 230 444
364 68 103 87 155 71 196 -19 44 -84 89 -129 89 -40 0 -137 -43 -246 -110 -54
-33 -65 -37 -47 -17 19 20 22 29 13 45 -15 29 -65 62 -92 62 -38 0 -249 -119
-249 -141 0 -15 22 -10 88 21 l63 30 -106 -116 c-141 -155 -268 -311 -310
-379 -32 -54 -34 -56 -46 -34 -29 54 16 214 76 271 14 13 25 28 25 35 0 18
-71 63 -99 63 -38 0 -235 -120 -376 -230 -85 -65 -89 -67 -80 -39 33 113 235
299 414 382 57 27 78 31 155 31 105 1 120 -9 92 -64 -20 -41 -20 -40 3 -40 18
0 30 21 46 77 16 58 -105 189 -168 182 -7 -1 -25 -4 -42 -6z"/>
<path d="M11480 2114 c-65 -17 -175 -80 -246 -140 -111 -93 -151 -242 -105
-392 19 -64 26 -102 18 -102 -2 0 -26 7 -53 15 -59 17 -104 61 -134 128 -23
51 -46 61 -56 23 -17 -69 95 -205 201 -245 76 -29 110 -27 131 5 16 24 16 32
0 124 -27 156 -6 231 89 319 93 86 215 141 311 141 67 0 60 -18 -51 -130 -36
-36 -83 -77 -105 -90 -54 -34 -53 -55 1 -46 60 10 135 51 197 109 98 93 104
130 35 215 -25 31 -53 62 -62 69 -21 17 -104 15 -171 -3z"/>
<path d="M7650 2059 c-168 -84 -335 -231 -400 -351 -42 -78 -49 -142 -21 -196
44 -87 131 -142 203 -128 87 16 358 226 358 277 0 29 -14 23 -79 -29 -74 -59
-220 -137 -285 -152 -90 -20 -120 31 -76 129 27 59 176 206 270 266 103 66
240 127 240 106 0 -15 -48 -71 -100 -115 -65 -56 -161 -105 -219 -113 -90 -12
-42 -48 53 -40 187 16 405 160 382 252 -4 14 -33 52 -65 85 -57 58 -61 60
-109 60 -40 0 -70 -10 -152 -51z"/>
<path d="M6755 2070 c7 -11 3 -16 -154 -196 -229 -264 -293 -417 -189 -453 55
-19 68 -15 62 19 -12 56 73 170 281 381 99 100 135 143 135 161 0 25 -37 66
-77 87 -27 14 -66 15 -58 1z"/>
<path d="M9038 2042 c-76 -37 -118 -67 -118 -84 0 -16 41 -8 92 18 l52 26 -50
-58 c-57 -67 -168 -207 -267 -337 -56 -73 -67 -94 -67 -127 0 -30 6 -43 26
-59 34 -27 84 -28 84 -2 0 24 101 133 202 218 90 75 339 262 350 263 4 0 -23
-39 -59 -87 -106 -141 -138 -234 -107 -311 24 -63 65 -92 125 -92 55 0 67 19
24 38 -25 12 -31 33 -26 91 5 57 72 157 198 298 46 51 83 101 83 112 0 11 -16
32 -35 47 -47 35 -103 30 -177 -17 -73 -47 -263 -183 -323 -233 -30 -24 -6 6
62 76 61 64 119 130 127 146 13 26 13 31 0 51 -16 22 -84 61 -106 60 -7 0 -48
-17 -90 -37z"/>
</g>
</svg>
